<?xml version="1.0" encoding="UTF-8"?>
<svg width="40" height="40" viewBox="0 0 40 40" fill="none" xmlns="http://www.w3.org/2000/svg">
    <circle cx="20" cy="20" r="20" fill="#E0E0E0"/>
    <path d="M20 10C16.6863 10 14 12.6863 14 16C14 19.3137 16.6863 22 20 22C23.3137 22 26 19.3137 26 16C26 12.6863 23.3137 10 20 10ZM20 20C17.7909 20 16 18.2091 16 16C16 13.7909 17.7909 12 20 12C22.2091 12 24 13.7909 24 16C24 18.2091 22.2091 20 20 20Z" fill="#8B4D2A"/>
    <path d="M20 22C14.4772 22 10 26.4772 10 32V40H30V32C30 26.4772 25.5228 22 20 22ZM28 38H12V32C12 27.5817 15.5817 24 20 24C24.4183 24 28 27.5817 28 32V38Z" fill="#8B4D2A"/>
</svg> 