<?xml version="1.0" encoding="UTF-8"?>
<svg width="120" height="40" viewBox="0 0 120 40" fill="none" xmlns="http://www.w3.org/2000/svg">
    <path d="M20 8C13.3726 8 8 13.3726 8 20C8 26.6274 13.3726 32 20 32C26.6274 32 32 26.6274 32 20C32 13.3726 26.6274 8 20 8ZM20 30C14.4772 30 10 25.5228 10 20C10 14.4772 14.4772 10 20 10C25.5228 10 30 14.4772 30 20C30 25.5228 25.5228 30 20 30Z" fill="#8B4D2A"/>
    <path d="M20 12C16.6863 12 14 14.6863 14 18C14 21.3137 16.6863 24 20 24C23.3137 24 26 21.3137 26 18C26 14.6863 23.3137 12 20 12ZM20 22C17.7909 22 16 20.2091 16 18C16 15.7909 17.7909 14 20 14C22.2091 14 24 15.7909 24 18C24 20.2091 22.2091 22 20 22Z" fill="#8B4D2A"/>
    <path d="M20 16C18.8954 16 18 16.8954 18 18C18 19.1046 18.8954 20 20 20C21.1046 20 22 19.1046 22 18C22 16.8954 21.1046 16 20 16Z" fill="#8B4D2A"/>
    <text x="40" y="25" font-family="Arial" font-size="16" font-weight="bold" fill="#8B4D2A">Adota Pet</text>
</svg> 